<svg width="129" height="48" viewBox="0 0 129 48" fill="none" xmlns="http://www.w3.org/2000/svg">
<g style="mix-blend-mode:luminosity" clip-path="url(#clip0_2_1710)">
<path d="M13.8877 13.1062V22.1939H4.47079V13.1062H0V34.7995H4.47079V26.0069H13.8877V34.7995H18.3585V13.1062H13.8877Z" fill="#33475B"/>
<path d="M32.6667 27.7867C32.6667 28.6561 32.2771 29.4899 31.5834 30.1046C30.8898 30.7194 29.949 31.0647 28.9681 31.0647C27.9872 31.0647 27.0464 30.7194 26.3528 30.1046C25.6591 29.4899 25.2695 28.6561 25.2695 27.7867V18.4951H21.0287V27.7867C21.0287 29.6511 21.8643 31.4392 23.3518 32.7575C24.8393 34.0759 26.8568 34.8165 28.9604 34.8165C31.0641 34.8165 33.0815 34.0759 34.569 32.7575C36.0565 31.4392 36.8922 29.6511 36.8922 27.7867V18.4951H32.6667V27.7867Z" fill="#33475B"/>
<path d="M64.0881 19.4527C64.0881 17.5482 65.5097 16.9444 67.0672 16.9444C68.3223 16.9444 69.9805 17.7908 71.0648 18.8178L73.8424 15.9174C72.4558 14.2555 69.6432 13.1062 67.341 13.1062C62.741 13.1062 59.4136 15.4942 59.4136 19.4527C59.4136 26.797 69.5424 24.4673 69.5424 28.5773C69.5424 29.845 68.1537 30.9652 66.5634 30.9652C64.0553 30.9652 63.2426 29.878 62.0904 28.7287L59.0084 31.569C60.9798 33.7143 63.4113 34.8034 66.3246 34.8034C70.6946 34.8034 74.2104 32.3863 74.2104 28.6084C74.2104 20.4545 64.0815 22.988 64.0815 19.4527" fill="#33475B"/>
<path d="M126.749 31.3339C124.243 31.3339 123.532 30.3729 123.532 28.9013V22.3878H127.426V19.0874H123.532V14.7329L119.232 16.4432V29.7108C119.232 33.1044 121.873 34.8148 125.496 34.8148C126.065 34.824 126.632 34.7837 127.192 34.6944L128.241 31.2717C127.768 31.3008 127.225 31.33 126.749 31.33" fill="#33475B"/>
<path d="M48.8095 18.6046C46.7088 18.6046 45.2434 19.1443 43.8261 20.3771V13.2366H39.5788V26.4712C39.5788 31.4257 43.6202 34.8193 48.1611 34.8193C53.1992 34.8193 57.6306 31.3655 57.6306 26.7139C57.6306 22.1205 53.5519 18.6066 48.8095 18.6066V18.6046ZM48.7832 31.0316C47.8301 31.0316 46.8984 30.7811 46.1059 30.3118C45.3134 29.8425 44.6957 29.1754 44.331 28.395C43.9662 27.6145 43.8708 26.7558 44.0567 25.9272C44.2427 25.0987 44.7016 24.3377 45.3756 23.7404C46.0496 23.143 46.9082 22.7363 47.8431 22.5715C48.7779 22.4067 49.7468 22.4912 50.6274 22.8145C51.508 23.1378 52.2606 23.6852 52.7901 24.3876C53.3196 25.09 53.6023 25.9158 53.6023 26.7605C53.6023 27.8933 53.0946 28.9796 52.1908 29.7806C51.2871 30.5816 50.0613 31.0316 48.7832 31.0316Z" fill="#33475B"/>
<path d="M94.9278 26.515C94.9278 21.8557 90.5052 18.4096 85.4584 18.4096C80.9175 18.4096 76.876 21.8032 76.876 26.7577V40.0001H81.1234V32.8499C82.5384 34.0807 84.0061 34.6224 86.1045 34.6224C90.8469 34.6224 94.9256 31.1103 94.9256 26.515H94.9278ZM90.9061 26.4684C90.9061 27.3132 90.6235 28.139 90.0939 28.8413C89.5644 29.5437 88.8118 30.0912 87.9312 30.4144C87.0506 30.7377 86.0817 30.8223 85.1469 30.6575C84.2121 30.4927 83.3534 30.0859 82.6794 29.4886C82.0055 28.8912 81.5465 28.1302 81.3605 27.3017C81.1746 26.4732 81.27 25.6144 81.6348 24.834C81.9995 24.0535 82.6172 23.3865 83.4097 22.9171C84.2022 22.4478 85.1339 22.1973 86.087 22.1973C87.3651 22.1973 88.5909 22.6473 89.4946 23.4483C90.3984 24.2493 90.9061 25.3357 90.9061 26.4684Z" fill="#33475B"/>
<path d="M108.606 18.3496V14.6066C109.165 14.3756 109.637 14.0088 109.969 13.5489C110.301 13.089 110.479 12.555 110.482 12.009V11.9216C110.479 11.1587 110.136 10.4276 109.528 9.88807C108.919 9.34858 108.094 9.04458 107.233 9.04254H107.134C106.274 9.04458 105.449 9.34858 104.84 9.88807C104.231 10.4276 103.888 11.1587 103.886 11.9216V12.009C103.889 12.555 104.066 13.089 104.398 13.5489C104.73 14.0088 105.203 14.3756 105.761 14.6066V18.3496C104.156 18.5671 102.645 19.1565 101.38 20.0581L89.7836 12.0614C89.8662 11.7976 89.9103 11.5256 89.9151 11.2519C89.9159 10.6095 89.7018 9.98128 89.2999 9.44673C88.8979 8.91217 88.3261 8.49527 87.6568 8.24873C86.9875 8.00219 86.2508 7.93708 85.5397 8.06166C84.8287 8.18623 84.1753 8.49487 83.6622 8.94857C83.149 9.40226 82.7992 9.98063 82.657 10.6105C82.5147 11.2404 82.5864 11.8936 82.863 12.4873C83.1395 13.0811 83.6086 13.5889 84.2107 13.9464C84.8129 14.3039 85.5212 14.4952 86.246 14.496C86.8826 14.4939 87.5074 14.3432 88.0575 14.0591L99.459 21.9257C98.4321 23.2989 97.8963 24.9146 97.9217 26.5619C97.9471 28.2091 98.5325 29.8113 99.6014 31.1591L96.1317 34.2343C95.8531 34.1557 95.5631 34.1138 95.2708 34.11C94.6751 34.11 94.0928 34.2666 93.5975 34.5599C93.1022 34.8532 92.7161 35.2701 92.4882 35.7579C92.2602 36.2457 92.2005 36.7824 92.3168 37.3002C92.433 37.818 92.7198 38.2937 93.1411 38.667C93.5623 39.0403 94.099 39.2946 94.6832 39.3976C95.2675 39.5006 95.8731 39.4477 96.4234 39.2457C96.9738 39.0436 97.4442 38.7015 97.7751 38.2625C98.1061 37.8235 98.2827 37.3074 98.2827 36.7794C98.2787 36.5204 98.2315 36.2633 98.1425 36.0165L101.575 32.9743C102.695 33.7328 103.997 34.2544 105.379 34.4993C106.762 34.7441 108.189 34.7058 109.553 34.3871C110.916 34.0685 112.179 33.478 113.246 32.6607C114.312 31.8434 115.154 30.8209 115.707 29.6713C116.26 28.5217 116.509 27.2754 116.435 26.0275C116.361 24.7796 115.967 23.5631 115.282 22.4709C114.597 21.3786 113.64 20.4395 112.483 19.7253C111.326 19.0111 110 18.5405 108.606 18.3496ZM107.185 30.6621C106.246 30.6621 105.327 30.4152 104.546 29.9527C103.766 29.4902 103.157 28.8329 102.797 28.0638C102.438 27.2947 102.344 26.4484 102.527 25.632C102.71 24.8155 103.163 24.0655 103.827 23.4769C104.491 22.8883 105.337 22.4874 106.258 22.325C107.18 22.1626 108.134 22.2459 109.002 22.5645C109.87 22.8831 110.612 23.4225 111.133 24.1147C111.655 24.8069 111.934 25.6206 111.934 26.4531C111.934 27.5694 111.434 28.6399 110.543 29.4293C109.652 30.2186 108.444 30.6621 107.185 30.6621Z" fill="#FF7A59"/>
</g>
<defs>
<clipPath id="clip0_2_1710">
<rect width="128.626" height="48" fill="white"/>
</clipPath>
</defs>
</svg>
